<svg xmlns="http://www.w3.org/2000/svg" xmlns:xlink="http://www.w3.org/1999/xlink" width="76" height="130" viewBox="0 0 76 130"><svg width="18" height="18" viewBox="0 0 18 18" fill="none" id="close" y="0"><path fill-rule="evenodd" clip-rule="evenodd" d="M9.95 9l7.8 7.8a.839.839 0 0 1 .248.526.63.63 0 0 1-.175.497.63.63 0 0 1-.497.175.839.839 0 0 1-.526-.248L9 9.95l-7.8 7.8a.839.839 0 0 1-.526.248.63.63 0 0 1-.497-.175.63.63 0 0 1-.175-.497.838.838 0 0 1 .248-.526L8.05 9 .25 1.2A.839.839 0 0 1 .002.674.63.63 0 0 1 .177.177.63.63 0 0 1 .674.002.839.839 0 0 1 1.2.25L9 8.05l7.8-7.8a.839.839 0 0 1 .526-.248.63.63 0 0 1 .497.175.63.63 0 0 1 .175.497.838.838 0 0 1-.248.526L9.95 9z" fill="#fff"></path></svg><svg width="21" height="20" viewBox="0 0 21 20" fill="none" id="fav-icon" y="18"><path fill-rule="evenodd" clip-rule="evenodd" d="M10.385 3.132C11.27 1.28 13.142 0 15.304 0c3.017 0 5.465 2.489 5.465 5.556 0 3.242-1.622 6.215-3.59 8.605-2.893 3.512-6.51 5.758-6.51 5.758a.544.544 0 0 1-.57 0s-3.616-2.246-6.508-5.758C1.622 11.771 0 8.798 0 5.556 0 2.489 2.449 0 5.466 0c2.162 0 4.032 1.279 4.919 3.132zm9.291 2.424c0-2.454-1.959-4.445-4.372-4.445-2.414 0-4.373 1.991-4.373 4.445v.02a.553.553 0 0 1-.546.535.551.551 0 0 1-.547-.548v-.007c0-2.454-1.959-4.445-4.372-4.445-2.414 0-4.373 1.991-4.373 4.445 0 2.98 1.526 5.695 3.335 7.892 2.299 2.79 5.072 4.748 5.957 5.336.884-.588 3.657-2.546 5.956-5.336 1.81-2.197 3.335-4.912 3.335-7.892z" fill="#fff"></path></svg><svg width="23" height="20" viewBox="0 0 23 20" fill="none" id="hamburger-menu" y="38"><path d="M.797 1.504H21.43a.675.675 0 0 0 .483-.205.71.71 0 0 0 0-.99.675.675 0 0 0-.483-.205H.797a.675.675 0 0 0-.483.205.709.709 0 0 0 0 .99.675.675 0 0 0 .483.205zM21.43 9.182H.798a.675.675 0 0 0-.483.205.709.709 0 0 0 0 .99.675.675 0 0 0 .483.205H21.43a.675.675 0 0 0 .483-.205.71.71 0 0 0 0-.99.675.675 0 0 0-.483-.205zM21.43 18.296H.798a.674.674 0 0 0-.483.205.709.709 0 0 0 0 .99.675.675 0 0 0 .483.205H21.43a.675.675 0 0 0 .483-.205.71.71 0 0 0 0-.99.675.675 0 0 0-.483-.205z" fill="#fff"></path></svg><svg width="76" height="32" viewBox="0 0 76 32" fill="none" id="mob-logo" y="58"><path d="M37.865 2.294c-3.174 0-5.824 2.155-6.566 5.058h1.613a5.235 5.235 0 0 1 4.953-3.524c1.254 0 2.393.43 3.302 1.166h2.125a6.773 6.773 0 0 0-5.427-2.7zM31.286 10.647a6.735 6.735 0 0 0 3.635 4.398v-1.762a5.268 5.268 0 0 1-2.022-2.636h-1.613zM40.809 13.283v1.762a6.77 6.77 0 0 0 3.635-4.398H42.83a5.215 5.215 0 0 1-2.022 2.636z" fill="#fff"></path><path d="M37.865 1.534a7.572 7.572 0 0 1 6.348 3.447h1.78A9.136 9.136 0 0 0 37.864 0a9.098 9.098 0 0 0-8.127 4.981h1.779a7.555 7.555 0 0 1 6.348-3.447zM46.799 10.647h-1.587c-.755 3.333-3.763 5.818-7.36 5.818a7.559 7.559 0 0 1-6.36-3.46h-1.767a9.129 9.129 0 0 0 8.14 4.993c4.441 0 8.153-3.168 8.934-7.351z" fill="#fff"></path><path d="M30.992 12.08a7.666 7.666 0 0 1-.64-2.358h5.49v5.69c.64.204 1.32.305 2.023.305.704 0 1.382-.101 2.022-.304V9.722h7.04c.013-.241.025-.47.025-.71s-.012-.482-.025-.71h-7.04v-.95H46.8a8.763 8.763 0 0 0-.397-1.433h-8.063v8.252c-.154.012-.308.025-.474.025-.154 0-.32-.013-.474-.025V5.919h-1.548v2.37h-5.49a7.397 7.397 0 0 1 .639-2.37h-1.677a8.82 8.82 0 0 0-.55 3.08 8.82 8.82 0 0 0 .55 3.08h1.677zM26.596 31.987h2.176v-6.743h8.818v-1.94H26.596v8.683z" fill="#fff"></path><path d="M36.26 26.677h-6.835v1.939h6.834v-1.94zM50.773 27.652c0 2.396 1.971 4.348 4.39 4.348h7.513v-1.94h-7.513c-1.215 0-2.214-1.19-2.214-2.395 0-1.204.986-2.395 2.215-2.395h7.512v-1.94h-7.513c-2.418-.025-4.39 1.927-4.39 4.323z" fill="#fff"></path><path d="M53.768 27.652c0 .558.448.976 1.011.976h6.566V26.69h-6.566c-.563-.012-1.01.406-1.01.963zM2.176 23.305H0v8.682h2.176v-3.371h6.63v-1.94h-6.63v-3.371zM11.647 23.305H9.471v8.682h2.176v-8.682zM71.61 27.69h-5.107v1.94h5.107c1.216 0 2.214 1.153 2.214 2.357H76c0-2.395-1.971-4.297-4.39-4.297z" fill="#fff"></path><path d="M73.39 27.5h2.175c-.077-2.332-2.01-4.208-4.377-4.208h-7.513v8.683h2.175V25.23h5.338c1.177.013 2.137 1.129 2.201 2.27zM50.082 23.305h-2.176v8.682h2.176v-8.682zM38.435 23.305v8.682h2.176v-6.172l6.643 5.64v-2.636l-6.643-5.514h-2.176zM12.377 27.652c0 2.396 1.97 4.348 4.39 4.348h1.996v-1.94h-1.997c-1.215 0-2.214-1.19-2.214-2.395 0-1.204.986-2.395 2.215-2.395h1.996v-1.94h-1.997c-2.418-.025-4.39 1.927-4.39 4.323zM21.438 23.305h-1.996v1.94h1.996c1.216 0 2.214 1.19 2.214 2.395 0 1.204-.985 2.395-2.214 2.395h-1.996v1.94h1.996c2.42 0 4.39-1.952 4.39-4.348-.013-2.37-1.97-4.322-4.39-4.322z" fill="#fff"></path></svg><svg width="22" height="20" viewBox="0 0 22 20" fill="none" id="sale-icon" y="90"><g clip-path="url(#a)"><path fill-rule="evenodd" clip-rule="evenodd" d="M8.475 16.47a1.766 1.766 0 1 0 0 3.532 1.766 1.766 0 0 0 0-3.531zm11.772 0a1.766 1.766 0 1 0 0 3.532 1.766 1.766 0 0 0 0-3.531zM8.475 17.648a.589.589 0 1 1 0 1.177.589.589 0 0 1 0-1.177zm11.772 0a.589.589 0 1 1 0 1.177.589.589 0 0 1 0-1.177zm-10.95-4.706l.148.708a.587.587 0 0 0 .575.469h7.872a.589.589 0 0 1 0 1.176H10.02a1.765 1.765 0 0 1-1.728-1.405L5.74 1.645a.587.587 0 0 0-.576-.469H2.59a.589.589 0 0 1 0-1.176h2.574C6 0 6.721.586 6.891 1.405l2.16 10.36h10.41a.59.59 0 0 0 .582-.492l.849-5.093a1.766 1.766 0 0 1 1.742-1.474.589.589 0 0 1 0 1.176.59.59 0 0 0-.582.492c-.223 1.346-.623 3.747-.848 5.093a1.766 1.766 0 0 1-1.742 1.474H9.296z" fill="#fff"></path></g><defs><clipPath id="a"><path fill="#fff" d="M0 0h22v20H0z"></path></clipPath></defs></svg><svg width="20" height="20" viewBox="0 0 20 20" fill="none" id="search-icon" y="110"><path fill-rule="evenodd" clip-rule="evenodd" d="M13.428 13.427a7.09 7.09 0 0 1-5.047 2.09 7.088 7.088 0 0 1-5.045-2.09 7.143 7.143 0 0 1 0-10.092A7.11 7.11 0 0 1 8.381 1.25c1.828 0 3.655.696 5.046 2.086a7.143 7.143 0 0 1 0 10.092zm6.252 5.368l-4.949-4.948c2.835-3.292 2.7-8.274-.42-11.395-3.268-3.27-8.59-3.27-11.858 0-3.27 3.27-3.27 8.59 0 11.858a8.329 8.329 0 0 0 5.928 2.457c2.03 0 3.947-.723 5.466-2.037l4.95 4.95a.622.622 0 0 0 .884 0 .626.626 0 0 0-.001-.885z" fill="#fff"></path></svg></svg>