<svg width="108" height="108" viewBox="0 0 108 108" fill="none" xmlns="http://www.w3.org/2000/svg">
<rect opacity="0.2" width="108" height="108" rx="54" fill="#FF9429"/>
<rect x="29" y="29" width="50" height="50" rx="25" fill="#FF9429"/>
<path fill-rule="evenodd" clip-rule="evenodd" d="M58.5 42C60.459 42 62.127 43.2525 62.745 45H49.5C47.5109 45 45.6032 45.7902 44.1967 47.1967C42.7902 48.6032 42 50.5109 42 52.5V59.745C41.1224 59.4345 40.3626 58.8595 39.8254 58.0993C39.2881 57.339 38.9997 56.4309 39 55.5V46.5C39 45.3065 39.4741 44.1619 40.318 43.318C41.1619 42.4741 42.3065 42 43.5 42H58.5ZM64.5 48H49.5C48.3065 48 47.1619 48.4741 46.318 49.318C45.4741 50.1619 45 51.3065 45 52.5V61.5C45 62.6935 45.4741 63.8381 46.318 64.682C47.1619 65.5259 48.3065 66 49.5 66H64.5C65.6935 66 66.8381 65.5259 67.682 64.682C68.5259 63.8381 69 62.6935 69 61.5V52.5C69 51.3065 68.5259 50.1619 67.682 49.318C66.8381 48.4741 65.6935 48 64.5 48ZM60 57C60 57.7956 59.6839 58.5587 59.1213 59.1213C58.5587 59.6839 57.7956 60 57 60C56.2044 60 55.4413 59.6839 54.8787 59.1213C54.3161 58.5587 54 57.7956 54 57C54 56.2044 54.3161 55.4413 54.8787 54.8787C55.4413 54.3161 56.2044 54 57 54C57.7956 54 58.5587 54.3161 59.1213 54.8787C59.6839 55.4413 60 56.2044 60 57Z" fill="white"/>
</svg>
