<svg width="108" height="108" viewBox="0 0 108 108" fill="none" xmlns="http://www.w3.org/2000/svg">
<rect opacity="0.2" width="108" height="108" rx="54" fill="#0096F2"/>
<rect x="29" y="29" width="50" height="50" rx="25" fill="#0096F2"/>
<path opacity="0.7" d="M54 42C47.3833 42 42 47.3838 42 54C42 60.6265 47.3735 66 54 66C60.6167 66 66 60.6167 66 54C66 47.3729 60.6271 42 54 42ZM54 60.0577C52.5617 60.0577 51.1823 59.4863 50.1653 58.4693C49.1483 57.4523 48.5769 56.0729 48.5769 54.6346C48.5769 53.1963 49.1483 51.8169 50.1653 50.7999C51.1823 49.7829 52.5617 49.2115 54 49.2115H54.2429L53.4288 48.3981C53.2774 48.2466 53.1923 48.0411 53.1923 47.8269C53.1923 47.6127 53.2774 47.4072 53.4288 47.2558C53.5803 47.1043 53.7858 47.0192 54 47.0192C54.2142 47.0192 54.4197 47.1043 54.5712 47.2558L56.8788 49.5635C56.9539 49.6385 57.0134 49.7275 57.054 49.8255C57.0945 49.9235 57.1154 50.0285 57.1154 50.1346C57.1154 50.2407 57.0945 50.3457 57.054 50.4437C57.0134 50.5417 56.9539 50.6308 56.8788 50.7058L54.5712 53.0135C54.4197 53.1649 54.2142 53.25 54 53.25C53.7858 53.25 53.5803 53.1649 53.4288 53.0135C53.2774 52.862 53.1923 52.6565 53.1923 52.4423C53.1923 52.2281 53.2774 52.0226 53.4288 51.8712L54.4673 50.8327C54.33 50.8269 54.1731 50.8269 54 50.8269C53.2469 50.8269 52.5107 51.0502 51.8846 51.4686C51.2584 51.887 50.7703 52.4817 50.4822 53.1775C50.194 53.8732 50.1186 54.6388 50.2655 55.3775C50.4124 56.1161 50.775 56.7945 51.3076 57.3271C51.8401 57.8596 52.5185 58.2222 53.2572 58.3691C53.9958 58.5161 54.7614 58.4407 55.4571 58.1525C56.1529 57.8643 56.7476 57.3762 57.166 56.7501C57.5844 56.1239 57.8077 55.3877 57.8077 54.6346C57.8077 54.4204 57.8928 54.215 58.0443 54.0635C58.1957 53.912 58.4012 53.8269 58.6154 53.8269C58.8296 53.8269 59.035 53.912 59.1865 54.0635C59.338 54.215 59.4231 54.4204 59.4231 54.6346C59.4214 56.0724 58.8495 57.4508 57.8328 58.4675C56.8162 59.4841 55.4378 60.056 54 60.0577V60.0577Z" fill="white"/>
</svg>
