<svg width="108" height="108" viewBox="0 0 108 108" fill="none" xmlns="http://www.w3.org/2000/svg">
<rect opacity="0.2" width="108" height="108" rx="54" fill="#E11D2E"/>
<rect x="29" y="29" width="50" height="50" rx="25" fill="#E11D2E"/>
<g opacity="0.7">
<path d="M64.334 42.3335H57.6673C56.9309 42.3335 56.334 42.9304 56.334 43.6668V50.3335C56.334 51.0699 56.9309 51.6668 57.6673 51.6668H64.334C65.0703 51.6668 65.6673 51.0699 65.6673 50.3335V43.6668C65.6673 42.9304 65.0703 42.3335 64.334 42.3335Z" fill="white"/>
<path d="M50 56.667H43.3333C42.597 56.667 42 57.2639 42 58.0003V64.667C42 65.4034 42.597 66.0003 43.3333 66.0003H50C50.7364 66.0003 51.3333 65.4034 51.3333 64.667V58.0003C51.3333 57.2639 50.7364 56.667 50 56.667Z" fill="white"/>
<path d="M46.6667 51.6668C47.2795 51.6668 47.8863 51.5461 48.4525 51.3116C49.0187 51.0771 49.5331 50.7333 49.9665 50.3C50.3998 49.8666 50.7436 49.3522 50.9781 48.786C51.2126 48.2198 51.3333 47.613 51.3333 47.0002C51.3333 46.3873 51.2126 45.7805 50.9781 45.2143C50.7436 44.6481 50.3998 44.1337 49.9665 43.7003C49.5331 43.267 49.0187 42.9232 48.4525 42.6887C47.8863 42.4542 47.2795 42.3335 46.6667 42.3335C45.429 42.3335 44.242 42.8252 43.3668 43.7003C42.4917 44.5755 42 45.7625 42 47.0002C42 48.2378 42.4917 49.4248 43.3668 50.3C44.242 51.1751 45.429 51.6668 46.6667 51.6668Z" fill="white"/>
<path d="M65.6673 64.667L61.0006 56.667L56.334 64.667C56.334 65.4034 56.9309 66.0003 57.6673 66.0003H64.334C65.0703 66.0003 65.6673 65.4034 65.6673 64.667Z" fill="white"/>
</g>
</svg>
